<mxfile host="app.diagrams.net" modified="2024-06-03T22:31:42.439Z" agent="Mozilla/5.0 (Windows NT 10.0; Win64; x64) AppleWebKit/537.36 (KHTML, like Gecko) Chrome/125.0.0.0 Safari/537.36 Edg/125.0.0.0" etag="EwMqMX0aUVAm5vEGNmHZ" version="24.4.13" type="github">
  <diagram name="PÃ¡gina-1" id="XdZ1UDOsBOBLOCC2Xxq1">
    <mxGraphModel dx="2586" dy="1185" grid="0" gridSize="10" guides="1" tooltips="1" connect="1" arrows="1" fold="1" page="0" pageScale="1" pageWidth="827" pageHeight="1169" math="0" shadow="0">
      <root>
        <mxCell id="0" />
        <mxCell id="1" parent="0" />
        <mxCell id="zVzXdsSc9gzONHGwE9---6" value="" style="shape=actor;whiteSpace=wrap;html=1;" parent="1" vertex="1">
          <mxGeometry x="207" y="623" width="48" height="60" as="geometry" />
        </mxCell>
        <mxCell id="zVzXdsSc9gzONHGwE9---10" style="edgeStyle=none;curved=1;rounded=0;orthogonalLoop=1;jettySize=auto;html=1;exitX=0.75;exitY=1;exitDx=0;exitDy=0;fontSize=12;startSize=8;endSize=8;" parent="1" edge="1">
          <mxGeometry relative="1" as="geometry">
            <mxPoint x="567" y="323" as="sourcePoint" />
            <mxPoint x="567" y="323" as="targetPoint" />
          </mxGeometry>
        </mxCell>
        <mxCell id="zVzXdsSc9gzONHGwE9---11" value="App CDA" style="swimlane;fontStyle=0;childLayout=stackLayout;horizontal=1;startSize=26;fillColor=none;horizontalStack=0;resizeParent=1;resizeParentMax=0;resizeLast=0;collapsible=1;marginBottom=0;html=1;" parent="1" vertex="1">
          <mxGeometry x="170" y="518" width="140" height="78" as="geometry">
            <mxRectangle x="-166" y="293" width="85" height="26" as="alternateBounds" />
          </mxGeometry>
        </mxCell>
        <mxCell id="zVzXdsSc9gzONHGwE9---12" value="Ingresar Acta" style="text;strokeColor=none;fillColor=none;align=left;verticalAlign=top;spacingLeft=4;spacingRight=4;overflow=hidden;rotatable=0;points=[[0,0.5],[1,0.5]];portConstraint=eastwest;whiteSpace=wrap;html=1;" parent="zVzXdsSc9gzONHGwE9---11" vertex="1">
          <mxGeometry y="26" width="140" height="26" as="geometry" />
        </mxCell>
        <mxCell id="zVzXdsSc9gzONHGwE9---13" value="Reconteo Acta" style="text;strokeColor=none;fillColor=none;align=left;verticalAlign=top;spacingLeft=4;spacingRight=4;overflow=hidden;rotatable=0;points=[[0,0.5],[1,0.5]];portConstraint=eastwest;whiteSpace=wrap;html=1;" parent="zVzXdsSc9gzONHGwE9---11" vertex="1">
          <mxGeometry y="52" width="140" height="26" as="geometry" />
        </mxCell>
        <mxCell id="zVzXdsSc9gzONHGwE9---20" style="edgeStyle=none;curved=1;rounded=0;orthogonalLoop=1;jettySize=auto;html=1;exitX=0.625;exitY=0.2;exitDx=0;exitDy=0;exitPerimeter=0;fontSize=12;startSize=8;endSize=8;" parent="1" source="zVzXdsSc9gzONHGwE9---16" target="zVzXdsSc9gzONHGwE9---18" edge="1">
          <mxGeometry relative="1" as="geometry" />
        </mxCell>
        <mxCell id="zVzXdsSc9gzONHGwE9---16" value="Gateway" style="ellipse;shape=cloud;whiteSpace=wrap;html=1;" parent="1" vertex="1">
          <mxGeometry x="150" y="361.5" width="170" height="115" as="geometry" />
        </mxCell>
        <mxCell id="zVzXdsSc9gzONHGwE9---18" value="" style="ellipse;whiteSpace=wrap;html=1;" parent="1" vertex="1">
          <mxGeometry x="-207" y="-237" width="946" height="566" as="geometry" />
        </mxCell>
        <mxCell id="zVzXdsSc9gzONHGwE9---19" value="Blockchain network" style="text;strokeColor=none;fillColor=none;html=1;align=center;verticalAlign=middle;whiteSpace=wrap;rounded=0;fontSize=16;" parent="1" vertex="1">
          <mxGeometry x="154" y="-220" width="210" height="30" as="geometry" />
        </mxCell>
        <mxCell id="zVzXdsSc9gzONHGwE9---22" value="" style="shape=flexArrow;endArrow=classic;startArrow=classic;html=1;rounded=0;fontSize=12;startSize=8;endSize=8;curved=1;width=31.11111111111111;" parent="1" edge="1">
          <mxGeometry width="100" height="100" relative="1" as="geometry">
            <mxPoint x="130" y="57" as="sourcePoint" />
            <mxPoint x="379" y="54" as="targetPoint" />
          </mxGeometry>
        </mxCell>
        <mxCell id="zVzXdsSc9gzONHGwE9---24" value="Channel" style="edgeLabel;html=1;align=center;verticalAlign=middle;resizable=0;points=[];fontSize=12;" parent="zVzXdsSc9gzONHGwE9---22" vertex="1" connectable="0">
          <mxGeometry x="0.108" y="5" relative="1" as="geometry">
            <mxPoint as="offset" />
          </mxGeometry>
        </mxCell>
        <mxCell id="zVzXdsSc9gzONHGwE9---26" value="Identidad" style="shape=note;whiteSpace=wrap;html=1;backgroundOutline=1;darkOpacity=0.05;" parent="1" vertex="1">
          <mxGeometry x="-22" y="-156" width="70" height="82" as="geometry" />
        </mxCell>
        <mxCell id="zVzXdsSc9gzONHGwE9---29" value="Resultados" style="shape=note;whiteSpace=wrap;html=1;backgroundOutline=1;darkOpacity=0.05;" parent="1" vertex="1">
          <mxGeometry x="93" y="-154" width="70" height="82" as="geometry" />
        </mxCell>
        <mxCell id="zVzXdsSc9gzONHGwE9---30" value="Actas" style="shape=note;whiteSpace=wrap;html=1;backgroundOutline=1;darkOpacity=0.05;" parent="1" vertex="1">
          <mxGeometry x="35" y="-202" width="70" height="82" as="geometry" />
        </mxCell>
        <mxCell id="zVzXdsSc9gzONHGwE9---25" value="&lt;p style=&quot;line-height: 150%;&quot;&gt;&lt;font style=&quot;font-size: 20px;&quot;&gt;P1 Org1&lt;/font&gt;&lt;/p&gt;" style="rounded=1;whiteSpace=wrap;html=1;" parent="1" vertex="1">
          <mxGeometry x="29" y="-102" width="78" height="104" as="geometry" />
        </mxCell>
        <mxCell id="zVzXdsSc9gzONHGwE9---33" value="L-ID" style="shape=document;whiteSpace=wrap;html=1;boundedLbl=1;" parent="1" vertex="1">
          <mxGeometry x="-22" y="-28" width="70" height="50" as="geometry" />
        </mxCell>
        <mxCell id="zVzXdsSc9gzONHGwE9---35" value="L - Resultados" style="shape=document;whiteSpace=wrap;html=1;boundedLbl=1;" parent="1" vertex="1">
          <mxGeometry x="93" y="-28" width="70" height="50" as="geometry" />
        </mxCell>
        <mxCell id="zVzXdsSc9gzONHGwE9---34" value="L - Actas" style="shape=document;whiteSpace=wrap;html=1;boundedLbl=1;" parent="1" vertex="1">
          <mxGeometry x="35" y="7" width="70" height="50" as="geometry" />
        </mxCell>
        <mxCell id="zVzXdsSc9gzONHGwE9---36" value="Identidad" style="shape=note;whiteSpace=wrap;html=1;backgroundOutline=1;darkOpacity=0.05;" parent="1" vertex="1">
          <mxGeometry x="361" y="-156" width="70" height="82" as="geometry" />
        </mxCell>
        <mxCell id="zVzXdsSc9gzONHGwE9---37" value="Resultados" style="shape=note;whiteSpace=wrap;html=1;backgroundOutline=1;darkOpacity=0.05;" parent="1" vertex="1">
          <mxGeometry x="476" y="-154" width="70" height="82" as="geometry" />
        </mxCell>
        <mxCell id="zVzXdsSc9gzONHGwE9---38" value="Actas" style="shape=note;whiteSpace=wrap;html=1;backgroundOutline=1;darkOpacity=0.05;" parent="1" vertex="1">
          <mxGeometry x="418" y="-202" width="70" height="82" as="geometry" />
        </mxCell>
        <mxCell id="zVzXdsSc9gzONHGwE9---39" value="&lt;p style=&quot;line-height: 150%;&quot;&gt;&lt;font style=&quot;font-size: 20px;&quot;&gt;P1 Org2&lt;/font&gt;&lt;/p&gt;" style="rounded=1;whiteSpace=wrap;html=1;" parent="1" vertex="1">
          <mxGeometry x="412" y="-102" width="78" height="104" as="geometry" />
        </mxCell>
        <mxCell id="zVzXdsSc9gzONHGwE9---40" value="L-ID" style="shape=document;whiteSpace=wrap;html=1;boundedLbl=1;" parent="1" vertex="1">
          <mxGeometry x="361" y="-28" width="70" height="50" as="geometry" />
        </mxCell>
        <mxCell id="zVzXdsSc9gzONHGwE9---41" value="L - Resultados" style="shape=document;whiteSpace=wrap;html=1;boundedLbl=1;" parent="1" vertex="1">
          <mxGeometry x="476" y="-28" width="70" height="50" as="geometry" />
        </mxCell>
        <mxCell id="zVzXdsSc9gzONHGwE9---42" value="L - Actas" style="shape=document;whiteSpace=wrap;html=1;boundedLbl=1;" parent="1" vertex="1">
          <mxGeometry x="418" y="7" width="70" height="50" as="geometry" />
        </mxCell>
        <mxCell id="zVzXdsSc9gzONHGwE9---43" value="Identidad" style="shape=note;whiteSpace=wrap;html=1;backgroundOutline=1;darkOpacity=0.05;" parent="1" vertex="1">
          <mxGeometry x="166.5" y="117" width="70" height="82" as="geometry" />
        </mxCell>
        <mxCell id="zVzXdsSc9gzONHGwE9---44" value="Resultados" style="shape=note;whiteSpace=wrap;html=1;backgroundOutline=1;darkOpacity=0.05;" parent="1" vertex="1">
          <mxGeometry x="281.5" y="119" width="70" height="82" as="geometry" />
        </mxCell>
        <mxCell id="zVzXdsSc9gzONHGwE9---45" value="Actas" style="shape=note;whiteSpace=wrap;html=1;backgroundOutline=1;darkOpacity=0.05;" parent="1" vertex="1">
          <mxGeometry x="223.5" y="71" width="70" height="82" as="geometry" />
        </mxCell>
        <mxCell id="zVzXdsSc9gzONHGwE9---46" value="&lt;p style=&quot;line-height: 150%;&quot;&gt;&lt;span style=&quot;font-size: 20px;&quot;&gt;Orderer&lt;/span&gt;&lt;/p&gt;" style="rounded=1;whiteSpace=wrap;html=1;" parent="1" vertex="1">
          <mxGeometry x="217.5" y="171" width="78" height="104" as="geometry" />
        </mxCell>
        <mxCell id="zVzXdsSc9gzONHGwE9---47" value="L-ID" style="shape=document;whiteSpace=wrap;html=1;boundedLbl=1;" parent="1" vertex="1">
          <mxGeometry x="166.5" y="245" width="70" height="50" as="geometry" />
        </mxCell>
        <mxCell id="zVzXdsSc9gzONHGwE9---48" value="L - Resultados" style="shape=document;whiteSpace=wrap;html=1;boundedLbl=1;" parent="1" vertex="1">
          <mxGeometry x="281.5" y="245" width="70" height="50" as="geometry" />
        </mxCell>
        <mxCell id="zVzXdsSc9gzONHGwE9---49" value="L - Actas" style="shape=document;whiteSpace=wrap;html=1;boundedLbl=1;" parent="1" vertex="1">
          <mxGeometry x="223.5" y="280" width="70" height="50" as="geometry" />
        </mxCell>
        <mxCell id="zVzXdsSc9gzONHGwE9---50" style="edgeStyle=none;curved=1;rounded=0;orthogonalLoop=1;jettySize=auto;html=1;entryX=0.427;entryY=0.97;entryDx=0;entryDy=0;entryPerimeter=0;fontSize=12;startSize=8;endSize=8;" parent="1" source="zVzXdsSc9gzONHGwE9---6" target="zVzXdsSc9gzONHGwE9---13" edge="1">
          <mxGeometry relative="1" as="geometry" />
        </mxCell>
        <mxCell id="zVzXdsSc9gzONHGwE9---51" style="edgeStyle=none;curved=1;rounded=0;orthogonalLoop=1;jettySize=auto;html=1;exitX=0.5;exitY=0;exitDx=0;exitDy=0;entryX=0.55;entryY=0.95;entryDx=0;entryDy=0;entryPerimeter=0;fontSize=12;startSize=8;endSize=8;" parent="1" source="zVzXdsSc9gzONHGwE9---11" target="zVzXdsSc9gzONHGwE9---16" edge="1">
          <mxGeometry relative="1" as="geometry" />
        </mxCell>
        <mxCell id="-Jm0tUS3hXanBWmtwiXy-42" style="edgeStyle=orthogonalEdgeStyle;rounded=0;orthogonalLoop=1;jettySize=auto;html=1;" edge="1" parent="1" source="-Jm0tUS3hXanBWmtwiXy-1" target="-Jm0tUS3hXanBWmtwiXy-3">
          <mxGeometry relative="1" as="geometry" />
        </mxCell>
        <mxCell id="-Jm0tUS3hXanBWmtwiXy-1" value="Identidad" style="shape=note;whiteSpace=wrap;html=1;backgroundOutline=1;darkOpacity=0.05;" vertex="1" parent="1">
          <mxGeometry x="-695.5" y="770" width="70" height="82" as="geometry" />
        </mxCell>
        <mxCell id="-Jm0tUS3hXanBWmtwiXy-3" value="" style="rounded=0;whiteSpace=wrap;html=1;" vertex="1" parent="1">
          <mxGeometry x="-1180" y="912" width="1039" height="1829" as="geometry" />
        </mxCell>
        <mxCell id="-Jm0tUS3hXanBWmtwiXy-33" style="edgeStyle=orthogonalEdgeStyle;rounded=0;orthogonalLoop=1;jettySize=auto;html=1;" edge="1" parent="1" source="-Jm0tUS3hXanBWmtwiXy-4" target="-Jm0tUS3hXanBWmtwiXy-31">
          <mxGeometry relative="1" as="geometry" />
        </mxCell>
        <mxCell id="-Jm0tUS3hXanBWmtwiXy-4" value="INICIO" style="ellipse;whiteSpace=wrap;html=1;" vertex="1" parent="1">
          <mxGeometry x="-745.5" y="936" width="120" height="80" as="geometry" />
        </mxCell>
        <mxCell id="-Jm0tUS3hXanBWmtwiXy-8" style="edgeStyle=orthogonalEdgeStyle;rounded=0;orthogonalLoop=1;jettySize=auto;html=1;" edge="1" parent="1" source="-Jm0tUS3hXanBWmtwiXy-5" target="-Jm0tUS3hXanBWmtwiXy-7">
          <mxGeometry relative="1" as="geometry" />
        </mxCell>
        <mxCell id="-Jm0tUS3hXanBWmtwiXy-5" value="MakeFolders" style="rounded=0;whiteSpace=wrap;html=1;" vertex="1" parent="1">
          <mxGeometry x="-839" y="1131" width="307" height="60" as="geometry" />
        </mxCell>
        <mxCell id="-Jm0tUS3hXanBWmtwiXy-10" style="edgeStyle=orthogonalEdgeStyle;rounded=0;orthogonalLoop=1;jettySize=auto;html=1;exitX=0.5;exitY=1;exitDx=0;exitDy=0;" edge="1" parent="1" source="-Jm0tUS3hXanBWmtwiXy-7" target="-Jm0tUS3hXanBWmtwiXy-11">
          <mxGeometry relative="1" as="geometry">
            <mxPoint x="-681.7499999999995" y="1295" as="targetPoint" />
          </mxGeometry>
        </mxCell>
        <mxCell id="-Jm0tUS3hXanBWmtwiXy-7" value="BuildDictionary" style="rounded=0;whiteSpace=wrap;html=1;" vertex="1" parent="1">
          <mxGeometry x="-835.5" y="1209" width="306.5" height="52" as="geometry" />
        </mxCell>
        <mxCell id="-Jm0tUS3hXanBWmtwiXy-13" style="edgeStyle=orthogonalEdgeStyle;rounded=0;orthogonalLoop=1;jettySize=auto;html=1;" edge="1" parent="1" source="-Jm0tUS3hXanBWmtwiXy-11" target="-Jm0tUS3hXanBWmtwiXy-12">
          <mxGeometry relative="1" as="geometry" />
        </mxCell>
        <mxCell id="-Jm0tUS3hXanBWmtwiXy-14" value="Si" style="edgeLabel;html=1;align=center;verticalAlign=middle;resizable=0;points=[];" vertex="1" connectable="0" parent="-Jm0tUS3hXanBWmtwiXy-13">
          <mxGeometry x="-0.2691" relative="1" as="geometry">
            <mxPoint as="offset" />
          </mxGeometry>
        </mxCell>
        <mxCell id="-Jm0tUS3hXanBWmtwiXy-16" value="No" style="edgeStyle=orthogonalEdgeStyle;rounded=0;orthogonalLoop=1;jettySize=auto;html=1;entryX=1;entryY=0.5;entryDx=0;entryDy=0;" edge="1" parent="1" source="-Jm0tUS3hXanBWmtwiXy-11" target="-Jm0tUS3hXanBWmtwiXy-15">
          <mxGeometry relative="1" as="geometry">
            <Array as="points">
              <mxPoint x="-509" y="1494" />
              <mxPoint x="-509" y="1323" />
            </Array>
          </mxGeometry>
        </mxCell>
        <mxCell id="-Jm0tUS3hXanBWmtwiXy-11" value="Fin del arbol de directorios" style="rhombus;whiteSpace=wrap;html=1;" vertex="1" parent="1">
          <mxGeometry x="-809" y="1417" width="254" height="154" as="geometry" />
        </mxCell>
        <mxCell id="-Jm0tUS3hXanBWmtwiXy-22" style="edgeStyle=orthogonalEdgeStyle;rounded=0;orthogonalLoop=1;jettySize=auto;html=1;" edge="1" parent="1" source="-Jm0tUS3hXanBWmtwiXy-12" target="-Jm0tUS3hXanBWmtwiXy-19">
          <mxGeometry relative="1" as="geometry" />
        </mxCell>
        <mxCell id="-Jm0tUS3hXanBWmtwiXy-12" value="Abstraer el objeto cda" style="rounded=0;whiteSpace=wrap;html=1;" vertex="1" parent="1">
          <mxGeometry x="-846.25" y="1608" width="328" height="60" as="geometry" />
        </mxCell>
        <mxCell id="-Jm0tUS3hXanBWmtwiXy-15" value="Abstraer Iterar el arbol" style="rounded=0;whiteSpace=wrap;html=1;" vertex="1" parent="1">
          <mxGeometry x="-835.5" y="1297" width="306.5" height="52" as="geometry" />
        </mxCell>
        <mxCell id="-Jm0tUS3hXanBWmtwiXy-24" style="edgeStyle=orthogonalEdgeStyle;rounded=0;orthogonalLoop=1;jettySize=auto;html=1;" edge="1" parent="1" source="-Jm0tUS3hXanBWmtwiXy-19" target="-Jm0tUS3hXanBWmtwiXy-23">
          <mxGeometry relative="1" as="geometry" />
        </mxCell>
        <mxCell id="-Jm0tUS3hXanBWmtwiXy-25" value="Si" style="edgeLabel;html=1;align=center;verticalAlign=middle;resizable=0;points=[];" vertex="1" connectable="0" parent="-Jm0tUS3hXanBWmtwiXy-24">
          <mxGeometry x="-0.0387" y="-1" relative="1" as="geometry">
            <mxPoint as="offset" />
          </mxGeometry>
        </mxCell>
        <mxCell id="-Jm0tUS3hXanBWmtwiXy-35" style="edgeStyle=orthogonalEdgeStyle;rounded=0;orthogonalLoop=1;jettySize=auto;html=1;entryX=1;entryY=0.5;entryDx=0;entryDy=0;" edge="1" parent="1" source="-Jm0tUS3hXanBWmtwiXy-19" target="-Jm0tUS3hXanBWmtwiXy-30">
          <mxGeometry relative="1" as="geometry">
            <Array as="points">
              <mxPoint x="-488" y="1801" />
              <mxPoint x="-488" y="2248" />
            </Array>
          </mxGeometry>
        </mxCell>
        <mxCell id="-Jm0tUS3hXanBWmtwiXy-36" value="No" style="edgeLabel;html=1;align=center;verticalAlign=middle;resizable=0;points=[];" vertex="1" connectable="0" parent="-Jm0tUS3hXanBWmtwiXy-35">
          <mxGeometry x="0.0215" relative="1" as="geometry">
            <mxPoint as="offset" />
          </mxGeometry>
        </mxCell>
        <mxCell id="-Jm0tUS3hXanBWmtwiXy-19" value="Si IP.valida() &amp;amp;&amp;amp; MAC.valida()" style="rhombus;whiteSpace=wrap;html=1;" vertex="1" parent="1">
          <mxGeometry x="-809.25" y="1724" width="254" height="154" as="geometry" />
        </mxCell>
        <mxCell id="-Jm0tUS3hXanBWmtwiXy-27" style="edgeStyle=orthogonalEdgeStyle;rounded=0;orthogonalLoop=1;jettySize=auto;html=1;" edge="1" parent="1" source="-Jm0tUS3hXanBWmtwiXy-23" target="-Jm0tUS3hXanBWmtwiXy-26">
          <mxGeometry relative="1" as="geometry" />
        </mxCell>
        <mxCell id="-Jm0tUS3hXanBWmtwiXy-23" value="Generar cda" style="rounded=0;whiteSpace=wrap;html=1;" vertex="1" parent="1">
          <mxGeometry x="-846.25" y="1918" width="328" height="60" as="geometry" />
        </mxCell>
        <mxCell id="-Jm0tUS3hXanBWmtwiXy-29" style="edgeStyle=orthogonalEdgeStyle;rounded=0;orthogonalLoop=1;jettySize=auto;html=1;" edge="1" parent="1" source="-Jm0tUS3hXanBWmtwiXy-26" target="-Jm0tUS3hXanBWmtwiXy-28">
          <mxGeometry relative="1" as="geometry" />
        </mxCell>
        <mxCell id="-Jm0tUS3hXanBWmtwiXy-26" value="Generar crypto material" style="rounded=0;whiteSpace=wrap;html=1;" vertex="1" parent="1">
          <mxGeometry x="-846" y="2011" width="328" height="60" as="geometry" />
        </mxCell>
        <mxCell id="-Jm0tUS3hXanBWmtwiXy-34" style="edgeStyle=orthogonalEdgeStyle;rounded=0;orthogonalLoop=1;jettySize=auto;html=1;" edge="1" parent="1" source="-Jm0tUS3hXanBWmtwiXy-28" target="-Jm0tUS3hXanBWmtwiXy-30">
          <mxGeometry relative="1" as="geometry" />
        </mxCell>
        <mxCell id="-Jm0tUS3hXanBWmtwiXy-28" value="Ejecutar transacciÃ³n CC" style="rounded=0;whiteSpace=wrap;html=1;" vertex="1" parent="1">
          <mxGeometry x="-846.25" y="2101" width="328" height="60" as="geometry" />
        </mxCell>
        <mxCell id="-Jm0tUS3hXanBWmtwiXy-30" value="FIN" style="ellipse;whiteSpace=wrap;html=1;" vertex="1" parent="1">
          <mxGeometry x="-742.25" y="2208" width="120" height="80" as="geometry" />
        </mxCell>
        <mxCell id="-Jm0tUS3hXanBWmtwiXy-32" style="edgeStyle=orthogonalEdgeStyle;rounded=0;orthogonalLoop=1;jettySize=auto;html=1;" edge="1" parent="1" source="-Jm0tUS3hXanBWmtwiXy-31" target="-Jm0tUS3hXanBWmtwiXy-5">
          <mxGeometry relative="1" as="geometry" />
        </mxCell>
        <mxCell id="-Jm0tUS3hXanBWmtwiXy-31" value="Read index" style="rounded=0;whiteSpace=wrap;html=1;" vertex="1" parent="1">
          <mxGeometry x="-839" y="1053" width="307" height="60" as="geometry" />
        </mxCell>
        <mxCell id="-Jm0tUS3hXanBWmtwiXy-37" value="" style="shape=actor;whiteSpace=wrap;html=1;" vertex="1" parent="1">
          <mxGeometry x="-684.5" y="440" width="48" height="60" as="geometry" />
        </mxCell>
        <mxCell id="-Jm0tUS3hXanBWmtwiXy-41" style="edgeStyle=orthogonalEdgeStyle;rounded=0;orthogonalLoop=1;jettySize=auto;html=1;" edge="1" parent="1" source="-Jm0tUS3hXanBWmtwiXy-38" target="-Jm0tUS3hXanBWmtwiXy-1">
          <mxGeometry relative="1" as="geometry" />
        </mxCell>
        <mxCell id="-Jm0tUS3hXanBWmtwiXy-38" value="App CDA" style="swimlane;fontStyle=0;childLayout=stackLayout;horizontal=1;startSize=26;fillColor=none;horizontalStack=0;resizeParent=1;resizeParentMax=0;resizeLast=0;collapsible=1;marginBottom=0;html=1;" vertex="1" parent="1">
          <mxGeometry x="-730.5" y="518" width="140" height="78" as="geometry">
            <mxRectangle x="-166" y="293" width="85" height="26" as="alternateBounds" />
          </mxGeometry>
        </mxCell>
        <mxCell id="-Jm0tUS3hXanBWmtwiXy-39" value="Registrar CDAs" style="text;strokeColor=none;fillColor=none;align=left;verticalAlign=top;spacingLeft=4;spacingRight=4;overflow=hidden;rotatable=0;points=[[0,0.5],[1,0.5]];portConstraint=eastwest;whiteSpace=wrap;html=1;" vertex="1" parent="-Jm0tUS3hXanBWmtwiXy-38">
          <mxGeometry y="26" width="140" height="26" as="geometry" />
        </mxCell>
        <mxCell id="-Jm0tUS3hXanBWmtwiXy-40" value="Fetch" style="text;strokeColor=none;fillColor=none;align=left;verticalAlign=top;spacingLeft=4;spacingRight=4;overflow=hidden;rotatable=0;points=[[0,0.5],[1,0.5]];portConstraint=eastwest;whiteSpace=wrap;html=1;" vertex="1" parent="-Jm0tUS3hXanBWmtwiXy-38">
          <mxGeometry y="52" width="140" height="26" as="geometry" />
        </mxCell>
      </root>
    </mxGraphModel>
  </diagram>
</mxfile>
